<mxfile host="app.diagrams.net" modified="2024-06-25T09:00:04.914Z" agent="Mozilla/5.0 (Macintosh; Intel Mac OS X 10_15_7) AppleWebKit/605.1.15 (KHTML, like Gecko) Version/17.5 Safari/605.1.15" version="24.6.2" etag="niXxkC8cjzPDsD8-NrlY" type="github">
  <diagram name="Page-1" id="9QG0dqpmWPZX36LCp9v9">
    <mxGraphModel>
      <root>
        <mxCell id="0" />
        <mxCell id="1" parent="0" />
      </root>
    </mxGraphModel>
  </diagram>
</mxfile>
